<svg viewBox="0 0 32 32" xmlns="http://www.w3.org/2000/svg"><path d="M24 30a6 6 0 1 1 6-6 6.007 6.007 0 0 1-6 6Zm0-10a4 4 0 1 0 4 4 4.005 4.005 0 0 0-4-4ZM8 22h8v2H8zM8 16h10v2H8z" fill="#208fd4" class="fill-000000"></path><path d="M16 28H6V4h8v6a2.006 2.006 0 0 0 2 2h6v3h2v-5a.91.91 0 0 0-.3-.7l-7-7A.909.909 0 0 0 16 2H6a2.006 2.006 0 0 0-2 2v24a2.006 2.006 0 0 0 2 2h10Zm0-23.6 5.6 5.6H16Z" fill="#208fd4" class="fill-000000"></path><path data-name="<Transparent Rectangle>" d="M0 0h32v32H0z" fill="none"></path></svg>